<svg width="28" height="28" viewBox="0 0 28 28" fill="none" xmlns="http://www.w3.org/2000/svg">
<path d="M14 1.03418C6.84032 1.03418 1.03415 6.83652 1.03415 14C1.03415 21.1597 6.84032 26.9659 14 26.9659C21.1635 26.9659 26.9659 21.1597 26.9659 14C26.9661 6.83652 21.1641 1.03418 14.0006 1.03418H14ZM14 22.7921C9.1501 22.7921 5.2079 18.8497 5.2079 14C5.2079 9.15423 9.15032 5.20793 14 5.20793C18.8497 5.20793 22.7921 9.1544 22.7921 14C22.7921 18.8499 18.8497 22.7921 14 22.7921Z" fill="white"/>
<path d="M18.019 15.2229L13.265 18.6449C12.27 19.3612 10.8818 18.65 10.8818 17.4241V10.5799C10.8818 9.35393 12.27 8.64277 13.265 9.35907L18.019 12.7811C18.853 13.3816 18.853 14.6227 18.019 15.223V15.2229Z" fill="white"/>
</svg>
